<svg xmlns="http://www.w3.org/2000/svg" viewBox="0 0 24.549 25.439">
  <defs>
    <style>
      .cls-1 {
        fill: #999;
        stroke: #999;
        stroke-width: 0.5px;
      }
    </style>
  </defs>
  <g id="controls" transform="translate(-0.75 0.25)">
    <path id="Path_257" data-name="Path 257" class="cls-1" d="M4.117,6.235A3.12,3.12,0,0,0,7.2,3.563H24.6a.445.445,0,0,0,0-.891H7.2A3.116,3.116,0,1,0,4.117,6.235Zm0-5.344A2.227,2.227,0,1,1,1.891,3.117,2.229,2.229,0,0,1,4.117.891Z"/>
    <path id="Path_258" data-name="Path 258" class="cls-1" d="M21.932,42a3.12,3.12,0,0,0-3.082,2.672H1.445a.445.445,0,0,0,0,.891h17.4A3.116,3.116,0,1,0,21.932,42Zm0,5.344a2.227,2.227,0,1,1,2.227-2.227A2.229,2.229,0,0,1,21.932,47.344Z" transform="translate(0 -23.295)"/>
    <path id="Path_259" data-name="Path 259" class="cls-1" d="M24.6,23.442h-8.3a3.209,3.209,0,0,0-6.378,0H1.445a.445.445,0,0,0,0,.891h8.51a3.206,3.206,0,0,0,6.322,0H24.6a.445.445,0,0,0,0-.891ZM13.117,26.115A2.319,2.319,0,1,1,15.436,23.8,2.322,2.322,0,0,1,13.117,26.115Z" transform="translate(0 -11.418)"/>
  </g>
</svg>
