<svg xmlns="http://www.w3.org/2000/svg" viewBox="0 0 24.537 26.29">
  <defs>
    <style>
      .cls-1 {
        fill: #fff;
      }
    </style>
  </defs>
  <g id="report" transform="translate(-0.5)">
    <path id="Path_160" data-name="Path 160" class="cls-1" d="M24.161,4.382H21.532V2.191A2.189,2.189,0,0,0,19.345,0H2.691A2.193,2.193,0,0,0,.5,2.191V25.414a.876.876,0,0,0,.876.876H14.083a.44.44,0,0,0,.31-.128L17.9,22.656a.438.438,0,0,0,.088-.128A.427.427,0,0,0,18,22.487a.444.444,0,0,0,.023-.114c0-.009.005-.018.005-.027v-4.82h4.823c.033,0,.066,0,.1,0a2.191,2.191,0,0,0,2.086-2.188V5.258A.876.876,0,0,0,24.161,4.382ZM1.376,2.191A1.314,1.314,0,0,1,2.691.876h14.9c-.013.017-.022.037-.035.054-.025.036-.047.073-.07.11a2.207,2.207,0,0,0-.126.231c-.02.044-.038.084-.055.128a2.224,2.224,0,0,0-.081.263c-.01.041-.023.081-.031.123a2.182,2.182,0,0,0-.04.405V21.908H14.96a1.314,1.314,0,0,0-1.315,1.314v2.191H1.376Zm13.145,22.6V23.223a.438.438,0,0,1,.438-.438h1.571Zm3.505-8.144V2.191a1.315,1.315,0,1,1,2.629,0V15.336a2.177,2.177,0,0,0,.438,1.314Zm6.134-1.314A1.312,1.312,0,0,1,22.91,16.65a1.249,1.249,0,0,1-.175-.01c-.031,0-.063,0-.094-.01a1.278,1.278,0,0,1-.654-.339,1.464,1.464,0,0,1-.454-1.055V5.258h2.629Zm0,0"/>
    <path id="Path_161" data-name="Path 161" class="cls-1" d="M51.7,76.8H63.968v.876H51.7Zm0,0" transform="translate(-48.57 -72.857)"/>
    <path id="Path_162" data-name="Path 162" class="cls-1" d="M51.7,145.066H63.968v.876H51.7Zm0,0" transform="translate(-48.57 -137.618)"/>
    <path id="Path_163" data-name="Path 163" class="cls-1" d="M51.7,213.332H63.968v.876H51.7Zm0,0" transform="translate(-48.57 -202.378)"/>
    <path id="Path_164" data-name="Path 164" class="cls-1" d="M51.7,281.6H63.968v.876H51.7Zm0,0" transform="translate(-48.57 -267.142)"/>
    <path id="Path_165" data-name="Path 165" class="cls-1" d="M51.7,349.867H63.968v.876H51.7Zm0,0" transform="translate(-48.57 -331.902)"/>
  </g>
</svg>
