<svg xmlns="http://www.w3.org/2000/svg" viewBox="0 0 24.198 24.196">
  <defs>
    <style>
      .cls-1 {
        fill: #83878c;
      }
    </style>
  </defs>
  <g id="Group_91" data-name="Group 91" transform="translate(0.003 -0.004)">
    <path id="Path_79" data-name="Path 79" class="cls-1" d="M7.46,10.2a1.177,1.177,0,0,0-.77-.41,1.13,1.13,0,0,0-.99,1.84L9.2,15.9a1.113,1.113,0,0,0,.83.41h.01a1.2,1.2,0,0,0,.84-.33L21.75,5.31a1.176,1.176,0,0,0,.02-1.61,1.176,1.176,0,0,0-1.61-.02l-10,9.82Z"/>
    <path id="Path_80" data-name="Path 80" class="cls-1" d="M23.11,7.08a.943.943,0,0,0-.52-.48.9.9,0,0,0-.7.03.911.911,0,0,0-.45,1.21,10.257,10.257,0,0,1-2.73,12.11A10.251,10.251,0,0,1,4.26,18.72,10.261,10.261,0,0,1,17.64,3.46a.93.93,0,0,0,1.27-.27.886.886,0,0,0,.12-.69.913.913,0,0,0-.4-.58A12.073,12.073,0,0,0,13.11.05,12.094,12.094,0,0,0,.04,11.09,12.108,12.108,0,0,0,11.08,24.16c.34.03.68.04,1.02.04A12.177,12.177,0,0,0,24.15,13.12,12.024,12.024,0,0,0,23.11,7.08Z"/>
  </g>
</svg>
