<svg width="30" height="30" xmlns="http://www.w3.org/2000/svg">

 <g>
  <title>background</title>
  <rect fill="none" id="canvas_background" height="402" width="582" y="-1" x="-1"/>
 </g>
 <g>
  <title>Layer 1</title>
  <path fill="#78787b" id="svg_1" d="m12.529866,6.108222l-4,0c-1.105,0 -2,0.895 -2,2l0,4c0,1.105 0.895,2 2,2l4,0c1.105,0 2,-0.895 2,-2l0,-4c0,-1.105 -0.895,-2 -2,-2zm0,6l-4,0l0,-4l4,0l0,4zm-1,-1l-2,0l0,-2l2,0l0,2z"/>
  <path fill="#78787b" id="svg_2" d="m12.529866,15.118763l-4,0c-1.105,0 -2,0.895 -2,2l0,4c0,1.105 0.895,2 2,2l4,0c1.105,0 2,-0.895 2,-2l0,-4c0,-1.105 -0.895,-2 -2,-2zm0,6l-4,0l0,-4l4,0l0,4zm-1,-1l-2,0l0,-2l2,0l0,2z"/>
  <path fill="#78787b" id="svg_3" d="m21.891778,6.037948l-4,0c-1.105,0 -2,0.895 -2,2l0,4c0,1.105 0.895,2 2,2l4,0c1.105,0 2,-0.895 2,-2l0,-4c0,-1.105 -0.895,-2 -2,-2zm0,6l-4,0l0,-4l4,0l0,4zm-1,-1l-2,0l0,-2l2,0l0,2z"/>
  <rect fill="#78787b" id="svg_13" y="16.1026" x="16.875615" width="2" height="2"/>
  <rect fill="#78787b" id="svg_16" y="20.1026" x="16.875615" width="2" height="2"/>
  <rect fill="#78787b" id="svg_20" y="18.1026" x="18.875615" width="2" height="2"/>
  <rect fill="#78787b" id="svg_22" y="20.1026" x="20.875615" width="2" height="2"/>
  <rect fill="#78787b" id="svg_23" y="16.1026" x="20.875615" width="2" height="2"/>
 </g>
</svg>