<svg xmlns="http://www.w3.org/2000/svg" viewBox="0 0 22.187 22.175">
  <defs>
    <style>
      .cls-1 {
        fill: #999;
      }
    </style>
  </defs>
  <g id="clock" transform="translate(0 -0.168)">
    <g id="Group_2" data-name="Group 2" transform="translate(0 0.168)">
      <path id="Path_3" data-name="Path 3" class="cls-1" d="M21.3,6.937a10.87,10.87,0,0,0-5.907-5.883A10.9,10.9,0,0,0,11.075.168a10.792,10.792,0,0,0-4.306.886,10.9,10.9,0,0,0-5.9,5.883,11.084,11.084,0,0,0,0,8.625,10.928,10.928,0,0,0,5.9,5.9,10.792,10.792,0,0,0,4.306.885,10.908,10.908,0,0,0,4.319-.885,10.894,10.894,0,0,0,5.908-5.9,10.943,10.943,0,0,0,0-8.625Zm-1.771,9.207A9.733,9.733,0,0,1,15.964,19.7a9.555,9.555,0,0,1-4.889,1.31,9.394,9.394,0,0,1-3.785-.776,9.919,9.919,0,0,1-3.106-2.074A9.859,9.859,0,0,1,2.111,15.04a9.551,9.551,0,0,1-.764-3.8,9.537,9.537,0,0,1,1.3-4.876A9.738,9.738,0,0,1,6.2,2.813,9.481,9.481,0,0,1,11.075,1.5a9.554,9.554,0,0,1,4.889,1.31A9.762,9.762,0,0,1,19.53,6.367a9.482,9.482,0,0,1,1.31,4.876A9.573,9.573,0,0,1,19.531,16.145Z" transform="translate(0 -0.168)"/>
      <path id="Path_4" data-name="Path 4" class="cls-1" d="M288.578,118.463v-6.806a.757.757,0,0,0-.762-.736.741.741,0,0,0-.723.736v6.911a.6.6,0,0,1,.026.105.687.687,0,0,0,.2.591l3.929,3.929a.747.747,0,0,0,1.012,0,.708.708,0,0,0,0-1.025Z" transform="translate(-276.935 -107.266)"/>
    </g>
  </g>
</svg>
